# xmcd
#
# Track frame offsets: 
#        150
#        17325
#        31770
#        40860
#        60105
#        71627
#        91522
#        109957
#        131430
#        149865
#
# Disc length: 2262 seconds
#
# Revision: 2
# Processed by: cddbd v1.5.2PL0 Copyright (c) Steve Scherf et al.
# Submitted via: ExactAudioCopy v1.0b1
#
DISCID=7a08d40a
DTITLE=Garth Brooks - The Chase
DYEAR=1992
DGENRE=Country
TTITLE0=We Shall be free
TTITLE1=Somewhere other than the night
TTITLE2=Mr.Right
TTITLE3=Every now and then
TTITLE4=Walking after midnight
TTITLE5=Dixie chicken
TTITLE6=Learning to live again
TTITLE7=That summer
TTITLE8=Night rider's lament
TTITLE9=Face to Face
EXTD=
EXTT0=
EXTT1=
EXTT2=
EXTT3=
EXTT4=
EXTT5=
EXTT6=
EXTT7=
EXTT8=
EXTT9=
PLAYORDER=
